<svg width="24" height="24" viewBox="0 0 24 24" fill="none" xmlns="http://www.w3.org/2000/svg">
<g clip-path="url(#clip0_17_81)">
<path d="M17.6705 9.4205C18.1098 8.98116 18.1098 8.26884 17.6705 7.8295C17.2312 7.39017 16.5188 7.39017 16.0795 7.8295L10.125 13.784L7.9205 11.5795C7.48116 11.1402 6.76884 11.1402 6.3295 11.5795C5.89016 12.0188 5.89016 12.7312 6.3295 13.1705L9.3295 16.1705C9.76884 16.6098 10.4812 16.6098 10.9205 16.1705L17.6705 9.4205Z" fill="#3FB950"/>
<path fill-rule="evenodd" clip-rule="evenodd" d="M0 12C0 5.37258 5.37258 0 12 0C18.6274 0 24 5.37258 24 12C24 18.6274 18.6274 24 12 24C5.37258 24 0 18.6274 0 12ZM2.25 12C2.25 6.61522 6.61522 2.25 12 2.25C17.3848 2.25 21.75 6.61522 21.75 12C21.75 17.3848 17.3848 21.75 12 21.75C6.61522 21.75 2.25 17.3848 2.25 12Z" fill="#3FB950"/>
</g>
<defs>
<clipPath id="clip0_17_81">
<rect width="24" height="24" fill="white"/>
</clipPath>
</defs>
</svg>
