<svg width="16" height="17" viewBox="0 0 16 17" fill="none" xmlns="http://www.w3.org/2000/svg">
<path fill-rule="evenodd" clip-rule="evenodd" d="M13.78 4.72C13.9204 4.86062 13.9993 5.05125 13.9993 5.25C13.9993 5.44875 13.9204 5.63937 13.78 5.78L6.53 13.03C6.38937 13.1704 6.19875 13.2493 6 13.2493C5.80125 13.2493 5.61062 13.1704 5.47 13.03L2.22 9.78C2.08752 9.63782 2.0154 9.44978 2.01882 9.25547C2.02225 9.06117 2.10096 8.87579 2.23838 8.73837C2.37579 8.60096 2.56118 8.52225 2.75548 8.51882C2.94978 8.51539 3.13782 8.58752 3.28 8.72L6 11.44L12.72 4.72C12.8606 4.57955 13.0512 4.50066 13.25 4.50066C13.4487 4.50066 13.6394 4.57955 13.78 4.72Z" fill="#7D8590"/>
</svg>
