<svg width="24" height="24" viewBox="0 0 24 24" fill="none" xmlns="http://www.w3.org/2000/svg">
<g id="dependabot">
<g id="Icon">
<path d="M8.625 11.25C9.24632 11.25 9.75 11.7537 9.75 12.375V14.625C9.75 15.2463 9.24632 15.75 8.625 15.75C8.00368 15.75 7.5 15.2463 7.5 14.625V12.375C7.5 11.7537 8.00368 11.25 8.625 11.25Z" fill="#6E7781"/>
<path d="M16.5 12.375C16.5 11.7537 15.9963 11.25 15.375 11.25C14.7537 11.25 14.25 11.7537 14.25 12.375V14.625C14.25 15.2463 14.7537 15.75 15.375 15.75C15.9963 15.75 16.5 15.2463 16.5 14.625V12.375Z" fill="#6E7781"/>
<path fill-rule="evenodd" clip-rule="evenodd" d="M9.375 0C8.75368 0 8.25 0.50368 8.25 1.125C8.25 1.74632 8.75368 2.25 9.375 2.25H11.25V5.25H5.625C3.76104 5.25 2.25 6.76104 2.25 8.625V12H1.125C0.50368 12 0 12.5037 0 13.125C0 13.7463 0.50368 14.25 1.125 14.25H2.25V18.375C2.25 20.239 3.76104 21.75 5.625 21.75H18.375C20.239 21.75 21.75 20.239 21.75 18.375V14.25H22.875C23.4963 14.25 24 13.7463 24 13.125C24 12.5037 23.4963 12 22.875 12H21.75V8.625C21.75 6.76104 20.239 5.25 18.375 5.25H13.5V1.125C13.5 0.50368 12.9963 0 12.375 0H9.375ZM4.5 8.625C4.5 8.00368 5.00368 7.5 5.625 7.5H18.375C18.9963 7.5 19.5 8.00368 19.5 8.625V18.375C19.5 18.9963 18.9963 19.5 18.375 19.5H5.625C5.00368 19.5 4.5 18.9963 4.5 18.375V8.625Z" fill="#6E7781"/>
</g>
</g>
</svg>
