<svg width="24" height="25" viewBox="0 0 24 25" fill="none" xmlns="http://www.w3.org/2000/svg">
<g clip-path="url(#clip0_17_80)">
<path d="M9.0455 8.20451C8.60616 7.76517 7.89385 7.76517 7.45451 8.20451C7.01517 8.64385 7.01517 9.35616 7.45451 9.7955L10.409 12.75L7.4545 15.7045C7.01516 16.1438 7.01516 16.8561 7.4545 17.2955C7.89384 17.7348 8.60615 17.7348 9.04549 17.2955L12 14.341L14.9545 17.2955C15.3938 17.7348 16.1062 17.7348 16.5455 17.2955C16.9848 16.8562 16.9848 16.1438 16.5455 15.7045L13.591 12.75L16.5455 9.79551C16.9848 9.35617 16.9848 8.64386 16.5455 8.20452C16.1062 7.76518 15.3938 7.76518 14.9545 8.20451L12 11.159L9.0455 8.20451Z" fill="#F85149"/>
<path fill-rule="evenodd" clip-rule="evenodd" d="M3.51472 4.26472C-1.17157 8.95101 -1.17157 16.549 3.51472 21.2353C8.20101 25.9216 15.799 25.9216 20.4853 21.2353C25.1716 16.549 25.1716 8.95101 20.4853 4.26472C15.799 -0.421573 8.20101 -0.421573 3.51472 4.26472ZM5.10571 19.6443C1.2981 15.8367 1.2981 9.66332 5.10571 5.85571C8.91332 2.0481 15.0867 2.0481 18.8943 5.85571C22.7019 9.66332 22.7019 15.8367 18.8943 19.6443C15.0867 23.4519 8.91332 23.4519 5.10571 19.6443Z" fill="#F85149"/>
</g>
<defs>
<clipPath id="clip0_17_80">
<rect width="24" height="24" fill="white" transform="translate(0 0.75)"/>
</clipPath>
</defs>
</svg>
